:SAMPLES-PER-SECOND 30
:FULLY-SPECIFIED
:DEGREES
223
root  -24.7813 34.0421 5.76832 170.833 -18.7754 174.583
RightUpLeg  -26.3571 8.04375 -15.5309
RightLeg  59.1022 6.94954 11.9086
RightFoot  -24.3409 0.248681 3.62593
RightToes  1.45519e-009 0 -3.6325e-017
Spine  29.078 -1.66255 0.444188
Spine1  -0.35846 -5.16336 19.2093
HEad  -29.2971 -2.6725 -1.84663
LeftShoulder1  0.512746 1.08002 -14.2121
LeftArm  7.77379 -40.2906 -82.8567
LeftForeArm  12.0695 -68.8587 -30.1169
LeftHand  0.050404 7.50889 4.67528
RightShoulder  0.152548 -2.91613 20.6436
RightArm  10.3632 -0.153365 51.8496
RightForeArm  160.781 65.1554 157.81
RightHand  -0.424285 7.38694 -4.2068
LeftUpLeg  -17.7204 11.7079 5.23723
LeftLeg  60.0478 1.35648 3.13967
LeftFoot  -27.1825 -0.405032 -4.08091
LeftToes  -2.53752e-010 -2.07034e-011 -2.70101e-011
224
root  -24.2718 34.1638 6.23713 172.359 -19.4217 175.528
RightUpLeg  -28.6225 7.15431 -14.2602
RightLeg  57.9489 6.57683 10.7554
RightFoot  -23.083 0.237692 3.83306
RightToes  1.45519e-009 0 -3.6325e-017
Spine  30.6536 -1.63961 0.534044
Spine1  0.279631 -5.10918 18.6159
HEad  -29.776 0.645375 -3.69763
LeftShoulder1  0.558017 0.944795 -14.9265
LeftArm  7.82206 -39.1711 -82.0377
LeftForeArm  10.9732 -68.1801 -28.9995
LeftHand  0.0539777 7.88236 4.25208
RightShoulder  0.143974 -2.95131 20.8711
RightArm  11.1547 -1.45539 50.9652
RightForeArm  160.333 65.9736 156.948
RightHand  -0.373265 6.70742 -3.92401
LeftUpLeg  -20.9268 11.6952 6.12654
LeftLeg  59.4198 1.0333 2.46824
LeftFoot  -25.3176 -0.322836 -3.8761
LeftToes  -2.53752e-010 -2.07034e-011 -2.70101e-011
225
root  -23.6798 34.2966 6.6034 173.879 -20.8202 176.572
RightUpLeg  -30.4907 6.07191 -12.8116
RightLeg  56.7374 6.02275 9.3769
RightFoot  -22.5036 0.281183 4.43905
RightToes  1.45519e-009 0 -3.6325e-017
Spine  31.7119 -1.74954 0.876155
Spine1  1.28931 -5.10066 17.4813
HEad  -30.2887 4.14593 -5.41631
LeftShoulder1  0.627783 0.688025 -15.4647
LeftArm  8.36036 -37.9446 -81.339
LeftForeArm  10.3575 -67.6866 -28.2239
LeftHand  0.0538225 7.48859 4.87358
RightShoulder  0.11257 -3.07168 21.2294
RightArm  11.6677 -2.45048 50.1715
RightForeArm  159.094 66.818 155.917
RightHand  -0.36801 7.30493 -3.71641
LeftUpLeg  -24.1123 10.8705 7.12855
LeftLeg  58.5274 0.705764 1.80731
LeftFoot  -23.3579 -0.275494 -3.94801
LeftToes  -2.53752e-010 -2.07034e-011 -2.70101e-011
226
root  -23.0464 34.4604 6.90134 175.184 -22.7446 177.575
RightUpLeg  -31.8745 5.04409 -11.3254
RightLeg  55.3379 5.3923 7.92377
RightFoot  -21.9793 0.316476 4.99562
RightToes  1.45519e-009 0 -3.6325e-017
Spine  32.9227 -1.75572 1.16224
Spine1  1.76729 -4.97484 16.7372
HEad  -30.6821 7.29904 -7.89473
LeftShoulder1  0.681715 0.508386 -15.9758
LeftArm  8.73851 -36.7118 -80.5581
LeftForeArm  9.80147 -67.1274 -27.3661
LeftHand  0.0506581 7.74573 4.27617
RightShoulder  0.11299 -3.07216 21.4331
RightArm  12.1523 -3.75173 49.2724
RightForeArm  159.072 67.3692 155.294
RightHand  -0.278256 7.08602 -2.94336
LeftUpLeg  -26.9176 9.71336 8.17976
LeftLeg  57.2179 0.298214 1.03684
LeftFoot  -21.2201 -0.228478 -4.11917
LeftToes  -2.53752e-010 -2.07034e-011 -2.70101e-011
227
root  -22.3524 34.6281 7.07636 176.3 -24.7893 178.844
RightUpLeg  -33.1391 4.69277 -9.41068
RightLeg  53.9755 4.64885 6.44667
RightFoot  -21.6241 0.305916 5.02566
RightToes  1.45519e-009 0 -3.6325e-017
Spine  33.8201 -1.69267 1.66519
Spine1  2.52364 -4.67853 15.6408
HEad  -31.0742 10.4259 -10.3766
LeftShoulder1  0.707264 0.411301 -16.1034
LeftArm  9.1661 -35.0668 -79.913
LeftForeArm  10.7528 -67.1001 -27.1899
LeftHand  0.0380501 7.11463 4.71401
RightShoulder  0.078653 -3.19947 21.8148
RightArm  12.7004 -4.21209 47.9372
RightForeArm  157.313 68.0256 154.303
RightHand  -0.299417 6.81246 -3.17581
LeftUpLeg  -29.4576 8.50947 9.7254
LeftLeg  55.6724 -0.160141 0.262988
LeftFoot  -19.0956 -0.186544 -4.43291
LeftToes  -2.53752e-010 -2.07034e-011 -2.70101e-011
228
root  -21.6218 34.8128 7.17044 177.173 -27.3758 -179.895
RightUpLeg  -34.1029 4.89507 -7.54915
RightLeg  52.6316 3.87234 5.04287
RightFoot  -21.3274 0.277051 4.82628
RightToes  1.45519e-009 0 -3.6325e-017
Spine  34.5199 -1.70614 2.1489
Spine1  3.47313 -4.53981 14.7738
HEad  -32.0384 13.3669 -12.8848
LeftShoulder1  0.68412 0.609414 -16.9216
LeftArm  9.96162 -33.6492 -78.6544
LeftForeArm  11.5542 -67.3809 -27.5321
LeftHand  0.0555486 7.51779 4.88729
RightShoulder  0.0933263 -3.14567 21.6287
RightArm  13.1584 -4.35338 46.9189
RightForeArm  155.744 68.6616 153.306
RightHand  -0.457166 7.91403 -4.35879
LeftUpLeg  -31.7 6.56649 11.3656
LeftLeg  53.7493 -0.578154 -0.364213
LeftFoot  -16.7173 -0.121421 -4.73407
LeftToes  -2.53752e-010 -2.07034e-011 -2.70101e-011
229
root  -20.8982 34.9517 7.15859 178.213 -30.6267 -178.679
RightUpLeg  -35.252 5.48823 -6.01221
RightLeg  51.6424 3.80468 4.76623
RightFoot  -21.9882 0.289488 4.70149
RightToes  1.45519e-009 0 -3.6325e-017
Spine  35.0701 -1.81783 2.54348
Spine1  3.57567 -4.47205 14.086
HEad  -32.7651 16.3197 -15.4598
LeftShoulder1  0.689762 0.625826 -17.2829
LeftArm  9.93362 -31.552 -77.6082
LeftForeArm  12.1889 -67.5849 -27.7793
LeftHand  0.0384226 7.01818 4.98325
RightShoulder  0.0868772 -3.17385 22.2812
RightArm  13.513 -4.60327 44.9756
RightForeArm  154.817 69.0546 152.667
RightHand  -0.490276 8.19628 -4.55986
LeftUpLeg  -34.2935 3.65644 13.0366
LeftLeg  51.816 -0.782367 -0.602168
LeftFoot  -14.4363 -0.0590985 -5.38239
LeftToes  -2.53752e-010 -2.07034e-011 -2.70101e-011
